<?xml version="1.0" encoding="UTF-8"?>
<svg xmlns="http://www.w3.org/2000/svg" xmlns:xlink="http://www.w3.org/1999/xlink" width="20px" height="20px" viewBox="0 0 20 20" version="1.1">
<defs>
<filter id="alpha" filterUnits="objectBoundingBox" x="0%" y="0%" width="100%" height="100%">
  <feColorMatrix type="matrix" in="SourceGraphic" values="0 0 0 0 1 0 0 0 0 1 0 0 0 0 1 0 0 0 1 0"/>
</filter>
<mask id="mask0">
  <g filter="url(#alpha)">
<rect x="0" y="0" width="20" height="20" style="fill:rgb(0%,0%,0%);fill-opacity:0.2;stroke:none;"/>
  </g>
</mask>
<clipPath id="clip1">
  <rect x="0" y="0" width="20" height="20"/>
</clipPath>
<g id="surface5" clip-path="url(#clip1)">
<path style=" stroke:none;fill-rule:nonzero;fill:rgb(100%,100%,100%);fill-opacity:1;" d="M 19.214844 6.109375 C 18.710938 4.917969 17.988281 3.847656 17.070312 2.929688 C 16.152344 2.011719 15.082031 1.289062 13.894531 0.785156 C 12.660156 0.265625 11.351562 0 10 0 C 9.859375 0 9.722656 0.00390625 9.582031 0.0078125 C 10.785156 0.0585938 11.953125 0.320312 13.058594 0.785156 C 14.25 1.289062 15.320312 2.011719 16.238281 2.929688 C 17.15625 3.847656 17.878906 4.917969 18.378906 6.109375 C 18.902344 7.339844 19.167969 8.648438 19.167969 10 C 19.167969 11.351562 18.902344 12.660156 18.378906 13.894531 C 17.878906 15.082031 17.15625 16.152344 16.238281 17.070312 C 15.320312 17.988281 14.25 18.710938 13.058594 19.214844 C 11.953125 19.679688 10.785156 19.941406 9.582031 19.992188 C 9.722656 19.996094 9.859375 20 10 20 C 11.351562 20 12.660156 19.734375 13.894531 19.214844 C 15.082031 18.710938 16.152344 17.988281 17.070312 17.070312 C 17.988281 16.152344 18.710938 15.082031 19.214844 13.894531 C 19.734375 12.660156 20 11.351562 20 10 C 20 8.648438 19.734375 7.339844 19.214844 6.109375 Z M 19.214844 6.109375 "/>
</g>
<mask id="mask1">
  <g filter="url(#alpha)">
<rect x="0" y="0" width="20" height="20" style="fill:rgb(0%,0%,0%);fill-opacity:0.101961;stroke:none;"/>
  </g>
</mask>
<clipPath id="clip2">
  <rect x="0" y="0" width="20" height="20"/>
</clipPath>
<g id="surface8" clip-path="url(#clip2)">
<path style=" stroke:none;fill-rule:nonzero;fill:rgb(0%,0%,0%);fill-opacity:1;" d="M 0.785156 13.894531 C 1.289062 15.082031 2.011719 16.152344 2.929688 17.070312 C 3.847656 17.988281 4.917969 18.710938 6.109375 19.214844 C 7.339844 19.734375 8.648438 20 10 20 C 10.140625 20 10.277344 19.996094 10.417969 19.992188 C 9.214844 19.941406 8.046875 19.679688 6.941406 19.214844 C 5.75 18.710938 4.679688 17.988281 3.761719 17.070312 C 2.84375 16.152344 2.125 15.082031 1.621094 13.894531 C 1.097656 12.660156 0.832031 11.351562 0.832031 10 C 0.832031 8.648438 1.097656 7.339844 1.621094 6.109375 C 2.125 4.917969 2.84375 3.847656 3.761719 2.929688 C 4.679688 2.011719 5.75 1.289062 6.941406 0.785156 C 8.046875 0.316406 9.214844 0.0585938 10.417969 0.0078125 C 10.277344 0.00390625 10.140625 0 10 0 C 8.648438 0 7.339844 0.265625 6.109375 0.785156 C 4.917969 1.289062 3.847656 2.011719 2.929688 2.929688 C 2.011719 3.847656 1.289062 4.917969 0.785156 6.109375 C 0.265625 7.339844 0 8.648438 0 10 C 0 11.351562 0.265625 12.660156 0.785156 13.894531 Z M 0.785156 13.894531 "/>
</g>
</defs>
<g id="surface1">
<path style=" stroke:none;fill-rule:nonzero;fill:rgb(92.941176%,33.333333%,39.215686%);fill-opacity:1;" d="M 19.214844 6.109375 C 18.710938 4.917969 17.988281 3.847656 17.070312 2.929688 C 16.152344 2.011719 15.082031 1.289062 13.894531 0.785156 C 12.660156 0.265625 11.351562 0 10 0 C 8.648438 0 7.339844 0.265625 6.109375 0.785156 C 4.917969 1.289062 3.847656 2.011719 2.929688 2.929688 C 2.011719 3.847656 1.289062 4.917969 0.785156 6.109375 C 0.265625 7.339844 0 8.648438 0 10 C 0 11.351562 0.265625 12.660156 0.785156 13.894531 C 1.289062 15.082031 2.011719 16.152344 2.929688 17.070312 C 3.847656 17.988281 4.917969 18.710938 6.109375 19.214844 C 7.339844 19.734375 8.648438 20 10 20 C 11.351562 20 12.660156 19.734375 13.894531 19.214844 C 15.082031 18.710938 16.152344 17.988281 17.070312 17.070312 C 17.988281 16.152344 18.710938 15.082031 19.214844 13.894531 C 19.734375 12.660156 20 11.351562 20 10 C 20 8.648438 19.734375 7.339844 19.214844 6.109375 Z M 19.214844 6.109375 "/>
<path style=" stroke:none;fill-rule:nonzero;fill:rgb(90.196078%,91.372549%,92.941176%);fill-opacity:1;" d="M 0.00390625 10.28125 C 0.0390625 11.53125 0.300781 12.746094 0.785156 13.894531 C 1.289062 15.082031 2.011719 16.152344 2.929688 17.070312 C 3.847656 17.988281 4.917969 18.710938 6.109375 19.214844 C 7.339844 19.734375 8.648438 20 10 20 C 11.351562 20 12.660156 19.734375 13.894531 19.214844 C 15.082031 18.710938 16.152344 17.988281 17.070312 17.070312 C 17.988281 16.152344 18.710938 15.082031 19.214844 13.894531 C 19.699219 12.746094 19.960938 11.53125 19.996094 10.28125 Z M 0.00390625 10.28125 "/>
<path style=" stroke:none;fill-rule:nonzero;fill:rgb(26.27451%,29.019608%,32.941176%);fill-opacity:1;" d="M 19.953125 10.984375 C 19.984375 10.660156 20 10.332031 20 10 C 20 9.628906 19.980469 9.257812 19.941406 8.894531 C 19.441406 8.972656 18.730469 9.070312 17.832031 9.171875 C 16.125 9.359375 13.382812 9.582031 10 9.582031 C 6.617188 9.582031 3.875 9.359375 2.167969 9.171875 C 1.269531 9.070312 0.558594 8.972656 0.0585938 8.894531 C 0.0195312 9.257812 0 9.628906 0 10 C 0 10.332031 0.015625 10.660156 0.046875 10.984375 C 1.671875 11.230469 5.242188 11.667969 10 11.667969 C 14.753906 11.667969 18.328125 11.230469 19.953125 10.984375 Z M 19.953125 10.984375 "/>
<path style=" stroke:none;fill-rule:nonzero;fill:rgb(90.196078%,91.372549%,92.941176%);fill-opacity:1;" d="M 12.082031 10.417969 C 12.082031 11.566406 11.152344 12.5 10 12.5 C 8.847656 12.5 7.917969 11.566406 7.917969 10.417969 C 7.917969 9.265625 8.847656 8.332031 10 8.332031 C 11.152344 8.332031 12.082031 9.265625 12.082031 10.417969 Z M 12.082031 10.417969 "/>
<path style=" stroke:none;fill-rule:nonzero;fill:rgb(26.27451%,29.019608%,32.941176%);fill-opacity:1;" d="M 10 6.667969 C 7.933594 6.667969 6.25 8.347656 6.25 10.417969 C 6.25 12.484375 7.933594 14.167969 10 14.167969 C 12.066406 14.167969 13.75 12.484375 13.75 10.417969 C 13.75 8.347656 12.066406 6.667969 10 6.667969 Z M 10 12.082031 C 9.082031 12.082031 8.332031 11.335938 8.332031 10.417969 C 8.332031 9.496094 9.082031 8.75 10 8.75 C 10.917969 8.75 11.667969 9.496094 11.667969 10.417969 C 11.667969 11.335938 10.917969 12.082031 10 12.082031 Z M 10 12.082031 "/>
<use xlink:href="#surface5" mask="url(#mask0)"/>
<use xlink:href="#surface8" mask="url(#mask1)"/>
</g>
</svg>
